<svg width="280" height="83" viewBox="0 0 280 83" fill="none" xmlns="http://www.w3.org/2000/svg">
<path d="M7 24L6.5 76.5" stroke="#FF7926" stroke-width="12" stroke-linecap="round"/>
<path d="M212.5 24L212 76.5" stroke="#FF7926" stroke-width="12" stroke-linecap="round"/>
<path d="M26 30V77" stroke="#FF7926" stroke-width="12" stroke-linecap="round"/>
<path d="M231.5 30V77" stroke="#FF7926" stroke-width="12" stroke-linecap="round"/>
<path d="M47 30V77" stroke="#FF7926" stroke-width="12" stroke-linecap="round"/>
<path d="M252.5 30V77" stroke="#FF7926" stroke-width="12" stroke-linecap="round"/>
<path d="M52 40C51.6258 39.4672 51.5 32.4999 57.5 32.4999C63.5 32.4999 63.5 37.5 63.5 40" stroke="#FF7926" stroke-width="2"/>
<path d="M257.5 40C257.126 39.4672 257 32.4999 263 32.4999C269 32.4999 269 37.5 269 40" stroke="#FF7926" stroke-width="2"/>
<path d="M31.1485 39.5001C30.7743 38.9673 30.6485 32 36.6485 32C42.6485 32.0001 42.6485 37.0001 42.6485 39.5001" stroke="#FF7926" stroke-width="2"/>
<path d="M236.649 39.5001C236.274 38.9673 236.148 32 242.148 32C248.148 32.0001 248.149 37.0001 248.148 39.5001" stroke="#FF7926" stroke-width="2"/>
<path d="M21 43C21 42.2016 22.5898 37.5 21 32C20.5 27 25.0264 19 34.5136 19C51.9076 19.0001 50.9917 37.6629 50.9917 47" stroke="#FF7926" stroke-width="2"/>
<path d="M226.5 43C226.5 42.2016 228.09 37.5 226.5 32C226 27 230.526 19 240.014 19C257.408 19.0001 256.492 37.6629 256.492 47" stroke="#FF7926" stroke-width="2"/>
<path d="M73 43C73 42.2016 71.391 37 73 31.5C73.5061 26.5 69.2872 19 59.6854 19C42.0815 19.0001 43.0084 37.6629 43.0084 47" stroke="#FF7926" stroke-width="2"/>
<path d="M278.5 43C278.5 42.2016 276.891 37 278.5 31.5C279.006 26.5 274.787 19 265.185 19C247.581 19.0001 248.508 37.6629 248.508 47" stroke="#FF7926" stroke-width="2"/>
<path d="M68 30V77" stroke="#FF7926" stroke-width="12" stroke-linecap="round"/>
<path d="M273.5 30V77" stroke="#FF7926" stroke-width="12" stroke-linecap="round"/>
<path d="M43.7809 25.2137C44.1455 24.8734 44.5339 24.561 44.9127 24.2371C45.0332 24.1341 45.0062 24.0746 44.8716 23.9907C44.5187 23.7707 44.1161 23.59 43.7353 23.4248C43.3383 23.2526 42.9141 23.2249 42.4895 23.1693C41.1371 22.992 39.8486 22.5737 38.615 22.0056C38.304 21.8623 37.9751 21.7592 37.6612 21.6222C37.3649 21.4929 37.1052 21.3493 36.7851 21.28C36.4953 21.2173 36.2102 21.155 35.9271 21.0655C35.6658 20.9829 35.4377 20.8708 35.1604 20.851C34.5507 20.8074 33.9 20.9119 33.3168 21.0883C32.86 21.2265 32.3558 21.2434 31.9203 21.426C31.6516 21.5387 31.4089 21.6189 31.1171 21.6496C30.4952 21.7151 30.0103 22.0301 29.4286 22.2064C28.9805 22.3422 28.4424 22.3406 28.0413 22.608C27.7837 22.7797 27.5729 23.0456 27.3203 23.2332C26.7495 23.6569 26.3316 24.2171 25.7824 24.6615C25.7287 24.705 25.2462 25.0901 25.3306 24.9673C25.372 24.9071 25.4483 24.9308 25.5131 24.9171C25.9893 24.8164 26.4498 24.6724 26.9324 24.5885C27.8487 24.4293 28.7828 24.2409 29.7116 24.1732C30.4059 24.1226 31.1066 24.2168 31.8017 24.2303C32.1651 24.2373 32.5249 24.3056 32.8878 24.3056C33.2573 24.3056 33.5719 24.1068 33.9032 23.9679C34.4752 23.728 35.2391 23.5023 35.8609 23.4545C36.5833 23.3989 37.3056 23.5057 38.0263 23.5275C38.3766 23.5381 38.7356 23.5704 39.0851 23.5435C39.4869 23.5126 39.8763 23.4476 40.2807 23.4476C40.5874 23.4476 41.0666 23.4505 41.3144 23.6735C41.4708 23.8143 41.7088 23.7492 41.8985 23.7808C41.9497 23.7893 42.5186 24.0116 42.3982 23.8584C42.2514 23.6715 42.0358 23.5257 41.8825 23.329C41.56 22.915 41.2588 22.4825 40.9014 22.0968C40.623 21.7965 40.1748 21.6508 39.8152 21.4762C39.5155 21.3307 39.2276 21.2243 38.9117 21.1248C38.6255 21.0347 38.2815 21.2031 38.0126 21.2708C37.5606 21.3847 37.102 21.4439 36.6573 21.5857C35.8862 21.8316 35.2645 22.3161 34.5672 22.7038C33.6759 23.1994 32.8693 23.826 31.8884 24.123C31.5463 24.2266 31.2494 24.3101 30.889 24.3101C30.8556 24.3101 30.6271 24.322 30.5969 24.2919C30.579 24.274 30.7193 24.2691 30.7201 24.2691C31.0188 24.2691 31.3172 24.2677 31.6146 24.301C32.2195 24.3687 32.8593 24.4875 33.3989 24.7825C33.5321 24.8553 33.8192 24.9879 33.8781 25.1498C33.9095 25.2363 33.7531 25.2148 33.7138 25.2183C33.1694 25.2667 32.6757 25.5361 32.1713 25.7248C31.6785 25.9093 31.1823 26.0857 30.6791 26.2382C30.5818 26.2677 30.5961 26.3522 30.5513 26.4322C30.4984 26.5266 30.3127 26.8553 30.533 26.8954C30.6967 26.9251 30.8931 26.8455 31.0441 26.8064C31.7246 26.63 32.4375 26.5112 33.1434 26.5372C33.5143 26.5508 33.9173 26.6291 34.2432 26.8132C34.3097 26.8509 34.4942 26.9203 34.4942 27.0209C34.4942 27.1095 34.3344 27.1755 34.2797 27.2171C33.8098 27.5747 33.3563 27.9536 32.8787 28.301C32.3058 28.7176 31.7228 29.1322 31.1263 29.5149C31.0279 29.578 30.8979 29.639 30.8456 29.7522C30.8132 29.8223 30.8062 29.864 30.8867 29.8138C31.0273 29.7259 31.262 29.774 31.4161 29.7704C32.0519 29.7558 32.8602 29.6079 33.3419 30.1378C33.6277 30.4522 32.9546 30.9472 32.7737 31.1281C32.4236 31.4782 32.1204 31.8877 31.7469 32.2119C31.7254 32.2306 31.5668 32.4121 31.5849 32.294C31.6144 32.1026 31.8183 31.9148 31.9409 31.7806C32.2427 31.4504 32.6029 31.1882 32.9722 30.9387C33.575 30.5314 34.3116 30.158 35.0555 30.1058C35.5992 30.0677 35.9528 30.3649 36.4473 30.4663C37.0533 30.5906 37.6934 30.406 38.3138 30.4709C38.6358 30.5046 38.9362 30.496 39.2585 30.48C39.5778 30.4642 39.8349 30.5361 40.1392 30.6169C40.4046 30.6874 40.734 30.7732 41.0109 30.6991C41.2252 30.6417 41.3961 30.478 41.5676 30.3477C41.899 30.096 42.1792 29.8123 42.4256 29.4761C42.5387 29.3216 42.5688 29.2331 42.599 29.0562C42.6815 28.5721 42.9079 28.1115 42.9184 27.6141C42.9251 27.2967 42.7355 27.0026 42.5899 26.7334C42.397 26.3769 42.11 26.0202 41.773 25.7887C40.8181 25.1328 39.9011 25.635 38.8751 25.8663C38.0179 26.0596 37.1646 26.0246 36.3333 26.3318C35.7194 26.5586 35.1187 26.6866 34.4713 26.7745C34.1029 26.8244 33.7096 26.8126 33.3464 26.884C33.0309 26.946 32.7334 27.0954 32.4223 27.1783C32.3515 27.1972 32.1346 27.2262 32.2078 27.2262C33.3408 27.2262 34.4563 27.1961 35.5917 27.1053C37.3694 26.9631 39.3018 26.8878 41.0542 27.3084C41.3904 27.3891 41.6859 27.5077 41.9875 27.6758C42.1561 27.7698 42.429 27.8867 42.5351 28.0591C42.5971 28.1599 42.3019 28.1035 42.1837 28.1093C41.5208 28.1415 40.8944 28.0649 40.2396 27.9929C39.1895 27.8774 38.0919 27.9655 37.036 27.9655C36.5426 27.9655 36.1147 28.014 35.6419 28.1549C35.2805 28.2627 34.9373 28.4619 34.5626 28.5154C34.3656 28.5436 34.1678 28.5405 33.9694 28.5405C33.9392 28.5405 33.7493 28.5405 33.8826 28.5405" stroke="#FF7926" stroke-width="3" stroke-linecap="round"/>
<path d="M249.281 25.2137C249.646 24.8734 250.034 24.561 250.413 24.2371C250.533 24.1341 250.506 24.0746 250.372 23.9907C250.019 23.7707 249.616 23.59 249.235 23.4248C248.838 23.2526 248.414 23.2249 247.989 23.1693C246.637 22.992 245.349 22.5737 244.115 22.0056C243.804 21.8623 243.475 21.7592 243.161 21.6222C242.865 21.4929 242.605 21.3493 242.285 21.28C241.995 21.2173 241.71 21.155 241.427 21.0655C241.166 20.9829 240.938 20.8708 240.66 20.851C240.051 20.8074 239.4 20.9119 238.817 21.0883C238.36 21.2265 237.856 21.2434 237.42 21.426C237.152 21.5387 236.909 21.6189 236.617 21.6496C235.995 21.7151 235.51 22.0301 234.929 22.2064C234.481 22.3422 233.942 22.3406 233.541 22.608C233.284 22.7797 233.073 23.0456 232.82 23.2332C232.25 23.6569 231.832 24.2171 231.282 24.6615C231.229 24.705 230.746 25.0901 230.831 24.9673C230.872 24.9071 230.948 24.9308 231.013 24.9171C231.489 24.8164 231.95 24.6724 232.432 24.5885C233.349 24.4293 234.283 24.2409 235.212 24.1732C235.906 24.1226 236.607 24.2168 237.302 24.2303C237.665 24.2373 238.025 24.3056 238.388 24.3056C238.757 24.3056 239.072 24.1068 239.403 23.9679C239.975 23.728 240.739 23.5023 241.361 23.4545C242.083 23.3989 242.806 23.5057 243.526 23.5275C243.877 23.5381 244.236 23.5704 244.585 23.5435C244.987 23.5126 245.376 23.4476 245.781 23.4476C246.087 23.4476 246.567 23.4505 246.814 23.6735C246.971 23.8143 247.209 23.7492 247.399 23.7808C247.45 23.7893 248.019 24.0116 247.898 23.8584C247.751 23.6715 247.536 23.5257 247.383 23.329C247.06 22.915 246.759 22.4825 246.401 22.0968C246.123 21.7965 245.675 21.6508 245.315 21.4762C245.016 21.3307 244.728 21.2243 244.412 21.1248C244.126 21.0347 243.782 21.2031 243.513 21.2708C243.061 21.3847 242.602 21.4439 242.157 21.5857C241.386 21.8316 240.764 22.3161 240.067 22.7038C239.176 23.1994 238.369 23.826 237.388 24.123C237.046 24.2266 236.749 24.3101 236.389 24.3101C236.356 24.3101 236.127 24.322 236.097 24.2919C236.079 24.274 236.219 24.2691 236.22 24.2691C236.519 24.2691 236.817 24.2677 237.115 24.301C237.72 24.3687 238.359 24.4875 238.899 24.7825C239.032 24.8553 239.319 24.9879 239.378 25.1498C239.41 25.2363 239.253 25.2148 239.214 25.2183C238.669 25.2667 238.176 25.5361 237.671 25.7248C237.179 25.9093 236.682 26.0857 236.179 26.2382C236.082 26.2677 236.096 26.3522 236.051 26.4322C235.998 26.5266 235.813 26.8553 236.033 26.8954C236.197 26.9251 236.393 26.8455 236.544 26.8064C237.225 26.63 237.938 26.5112 238.643 26.5372C239.014 26.5508 239.417 26.6291 239.743 26.8132C239.81 26.8509 239.994 26.9203 239.994 27.0209C239.994 27.1095 239.834 27.1755 239.78 27.2171C239.31 27.5747 238.856 27.9536 238.379 28.301C237.806 28.7176 237.223 29.1322 236.626 29.5149C236.528 29.578 236.398 29.639 236.346 29.7522C236.313 29.8223 236.306 29.864 236.387 29.8138C236.527 29.7259 236.762 29.774 236.916 29.7704C237.552 29.7558 238.36 29.6079 238.842 30.1378C239.128 30.4522 238.455 30.9472 238.274 31.1281C237.924 31.4782 237.62 31.8877 237.247 32.2119C237.225 32.2306 237.067 32.4121 237.085 32.294C237.114 32.1026 237.318 31.9148 237.441 31.7806C237.743 31.4504 238.103 31.1882 238.472 30.9387C239.075 30.5314 239.812 30.158 240.556 30.1058C241.099 30.0677 241.453 30.3649 241.947 30.4663C242.553 30.5906 243.193 30.406 243.814 30.4709C244.136 30.5046 244.436 30.496 244.759 30.48C245.078 30.4642 245.335 30.5361 245.639 30.6169C245.905 30.6874 246.234 30.7732 246.511 30.6991C246.725 30.6417 246.896 30.478 247.068 30.3477C247.399 30.096 247.679 29.8123 247.926 29.4761C248.039 29.3216 248.069 29.2331 248.099 29.0562C248.182 28.5721 248.408 28.1115 248.418 27.6141C248.425 27.2967 248.236 27.0026 248.09 26.7334C247.897 26.3769 247.61 26.0202 247.273 25.7887C246.318 25.1328 245.401 25.635 244.375 25.8663C243.518 26.0596 242.665 26.0246 241.833 26.3318C241.219 26.5586 240.619 26.6866 239.971 26.7745C239.603 26.8244 239.21 26.8126 238.846 26.884C238.531 26.946 238.233 27.0954 237.922 27.1783C237.852 27.1972 237.635 27.2262 237.708 27.2262C238.841 27.2262 239.956 27.1961 241.092 27.1053C242.869 26.9631 244.802 26.8878 246.554 27.3084C246.89 27.3891 247.186 27.5077 247.488 27.6758C247.656 27.7698 247.929 27.8867 248.035 28.0591C248.097 28.1599 247.802 28.1035 247.684 28.1093C247.021 28.1415 246.394 28.0649 245.74 27.9929C244.69 27.8774 243.592 27.9655 242.536 27.9655C242.043 27.9655 241.615 28.014 241.142 28.1549C240.781 28.2627 240.437 28.4619 240.063 28.5154C239.866 28.5436 239.668 28.5405 239.469 28.5405C239.439 28.5405 239.249 28.5405 239.383 28.5405" stroke="#FF7926" stroke-width="3" stroke-linecap="round"/>
<path d="M34.9094 24.5155C35.0923 25.1765 35.288 25.8366 35.4844 26.4938C35.5427 26.6889 35.6208 27.034 35.7719 27.1852" stroke="#FF7926" stroke-width="3" stroke-linecap="round"/>
<path d="M240.409 24.5155C240.592 25.1765 240.788 25.8366 240.984 26.4938C241.043 26.6889 241.121 27.034 241.272 27.1852" stroke="#FF7926" stroke-width="3" stroke-linecap="round"/>
<path d="M49.1613 25.2548C50.3761 24.6703 51.7224 24.2694 53.0518 24.0569C53.8588 23.9278 54.7808 23.8633 55.5959 23.9998C55.7478 24.0253 55.922 24.0646 56.0705 24.1071C56.2363 24.1544 55.7272 24.1459 55.5548 24.1459C54.1503 24.1459 52.7516 24.2713 51.3564 24.406C50.9951 24.4409 50.6292 24.4087 50.2748 24.4973C50.0901 24.5434 49.8589 24.6365 49.6633 24.5931C49.5297 24.5634 50.1951 23.9764 50.2429 23.9359C50.5176 23.7034 50.7427 23.4231 51.0141 23.1898C51.3172 22.9293 51.7251 22.7406 52.0797 22.56C52.3605 22.4171 52.7203 22.3832 53.0267 22.3387C53.6018 22.2552 54.1514 22.0863 54.7243 21.9896C55.2762 21.8964 55.849 21.9107 56.39 21.7614C56.8366 21.6382 57.2958 21.6254 57.7453 21.5173C58.2936 21.3854 58.7887 21.2681 59.3585 21.3393C60.2565 21.4515 61.1735 21.6183 62.0442 21.8595C62.6466 22.0264 63.2845 22.1522 63.8993 22.2725C64.2933 22.3496 64.704 22.3515 65.1017 22.4208C65.7271 22.5299 66.3778 22.6146 66.9865 22.7928C67.8933 23.0582 68.1412 23.8835 68.5837 24.6433C68.7314 24.8968 68.8243 24.9262 69.0903 24.9262C69.1724 24.9262 69.2572 24.9325 69.339 24.9239C69.463 24.9109 69.1419 24.7686 69.0309 24.7117C68.7618 24.5739 68.5996 24.4127 68.3921 24.2052C68.0569 23.87 67.5022 23.6844 67.0641 23.5389C66.1393 23.2318 65.2417 22.8399 64.31 22.5532C63.7467 22.3799 63.1581 22.5289 62.5918 22.357C62.3963 22.2976 62.1987 22.2388 61.9985 22.1972C61.7715 22.1501 61.6259 22.0422 61.419 21.9508C60.7894 21.6726 60.1533 21.455 59.5069 21.2206C59.4755 21.2093 58.4074 20.8463 58.7356 20.7186C58.8751 20.6644 59.055 20.6719 59.2011 20.6456C59.4893 20.5938 59.7539 20.5312 60.0454 20.6C60.4474 20.6949 60.8021 20.884 61.1862 21.0244C61.6956 21.2106 62.2179 21.103 62.7447 21.2184C63.2585 21.3309 63.7463 21.4134 64.2712 21.4625C64.9292 21.5241 65.6182 21.6044 66.197 21.9508C66.28 22.0005 66.5815 22.1632 66.4229 22.2566C66.1986 22.3885 65.7405 22.3233 65.4988 22.3296C64.4733 22.3563 63.4485 22.365 62.423 22.4026C61.508 22.4361 60.6005 22.4765 59.7031 22.6741C58.4973 22.9396 57.3447 23.4325 56.228 23.9473C55.0894 24.4723 53.9609 25.0154 52.8167 25.5286C52.0705 25.8634 51.2992 26.189 50.5989 26.6147C50.5638 26.636 49.9464 27.0605 49.9919 26.9068C50.0463 26.7232 50.2973 26.5803 50.4346 26.4938C51.4922 25.8274 52.7093 25.2308 53.9211 24.9148C55.968 24.3811 58.1085 23.9818 60.2279 24.2234C60.6593 24.2726 61.0729 24.4109 61.508 24.4288C61.9657 24.4477 62.3962 24.4913 62.8474 24.5748C63.5347 24.7021 64.1638 25.0334 64.8553 25.1316C65.0579 25.1603 65.3734 25.1933 65.4874 25.3985C65.6869 25.7577 63.5803 25.84 63.5136 25.8481C62.1611 26.0122 60.8154 26.2173 59.4681 26.4185C58.5963 26.5486 57.7044 26.6227 56.8418 26.8064C55.4832 27.0956 54.1482 27.4841 52.7962 27.7967C51.9136 28.0008 51.0303 28.2208 50.1653 28.4903C50.0848 28.5154 49.7925 28.6527 49.7044 28.5976C49.6219 28.546 49.7686 28.4099 49.8025 28.3945C50.3391 28.1518 50.9826 28.0645 51.5481 27.9153C52.8314 27.5769 54.126 27.5113 55.4499 27.5092C57.8252 27.5053 60.1281 27.8654 62.4572 28.2918C62.9601 28.3839 63.4318 28.4798 63.897 28.7003C64.0288 28.7627 64.1572 28.8329 64.2849 28.9033C64.3138 28.9193 64.4036 28.9432 64.3716 28.9513C64.2747 28.9755 64.1279 28.9515 64.0316 28.9558C62.9385 29.0049 61.8426 29.02 60.7504 29.0836C59.6572 29.1473 58.5698 29.287 57.4761 29.3437C56.676 29.3852 55.8897 29.3909 55.0985 29.5354C53.8067 29.7713 52.5043 30.1434 51.329 30.7356C50.7443 31.0303 50.1137 31.305 49.4854 31.4954C49.3446 31.5381 49.1084 31.68 49.3165 31.4384C49.4573 31.2749 49.659 31.2482 49.8618 31.2011C50.853 30.971 51.8535 30.8003 52.8669 30.7036C53.7401 30.6203 54.6484 30.5399 55.5229 30.6489C56.1669 30.7292 56.7799 30.8406 57.4305 30.8406C57.8226 30.8406 58.2135 30.8464 58.6033 30.7949C59.0315 30.7384 59.4424 30.6459 59.8765 30.6375C60.7033 30.6214 61.5218 30.6656 62.318 30.8908C62.5059 30.9439 62.715 30.959 62.715 31.1737C62.715 31.4732 62.5721 31.8979 62.4458 32.1685C62.3937 32.2801 62.2652 32.1829 62.1811 32.1548C61.4581 31.9138 60.7863 31.5315 60.0682 31.2787C59.3192 31.0149 58.4533 30.9408 57.6906 31.1372C56.6411 31.4074 55.5831 31.6413 54.5326 31.9061C53.9071 32.0638 53.311 32.0678 52.6798 32.1457C52.4605 32.1728 51.5024 32.7926 51.5024 32.3191" stroke="#FF7926" stroke-width="3" stroke-linecap="round"/>
<path d="M254.661 25.2548C255.876 24.6703 257.222 24.2694 258.552 24.0569C259.359 23.9278 260.281 23.8633 261.096 23.9998C261.248 24.0253 261.422 24.0646 261.57 24.1071C261.736 24.1544 261.227 24.1459 261.055 24.1459C259.65 24.1459 258.252 24.2713 256.856 24.406C256.495 24.4409 256.129 24.4087 255.775 24.4973C255.59 24.5434 255.359 24.6365 255.163 24.5931C255.03 24.5634 255.695 23.9764 255.743 23.9359C256.018 23.7034 256.243 23.4231 256.514 23.1898C256.817 22.9293 257.225 22.7406 257.58 22.56C257.86 22.4171 258.22 22.3832 258.527 22.3387C259.102 22.2552 259.651 22.0863 260.224 21.9896C260.776 21.8964 261.349 21.9107 261.89 21.7614C262.337 21.6382 262.796 21.6254 263.245 21.5173C263.794 21.3854 264.289 21.2681 264.859 21.3393C265.756 21.4515 266.673 21.6183 267.544 21.8595C268.147 22.0264 268.784 22.1522 269.399 22.2725C269.793 22.3496 270.204 22.3515 270.602 22.4208C271.227 22.5299 271.878 22.6146 272.486 22.7928C273.393 23.0582 273.641 23.8835 274.084 24.6433C274.231 24.8968 274.324 24.9262 274.59 24.9262C274.672 24.9262 274.757 24.9325 274.839 24.9239C274.963 24.9109 274.642 24.7686 274.531 24.7117C274.262 24.5739 274.1 24.4127 273.892 24.2052C273.557 23.87 273.002 23.6844 272.564 23.5389C271.639 23.2318 270.742 22.8399 269.81 22.5532C269.247 22.3799 268.658 22.5289 268.092 22.357C267.896 22.2976 267.699 22.2388 267.499 22.1972C267.271 22.1501 267.126 22.0422 266.919 21.9508C266.289 21.6726 265.653 21.455 265.007 21.2206C264.975 21.2093 263.907 20.8463 264.236 20.7186C264.375 20.6644 264.555 20.6719 264.701 20.6456C264.989 20.5938 265.254 20.5312 265.545 20.6C265.947 20.6949 266.302 20.884 266.686 21.0244C267.196 21.2106 267.718 21.103 268.245 21.2184C268.758 21.3309 269.246 21.4134 269.771 21.4625C270.429 21.5241 271.118 21.6044 271.697 21.9508C271.78 22.0005 272.081 22.1632 271.923 22.2566C271.699 22.3885 271.24 22.3233 270.999 22.3296C269.973 22.3563 268.948 22.365 267.923 22.4026C267.008 22.4361 266.1 22.4765 265.203 22.6741C263.997 22.9396 262.845 23.4325 261.728 23.9473C260.589 24.4723 259.461 25.0154 258.317 25.5286C257.57 25.8634 256.799 26.189 256.099 26.6147C256.064 26.636 255.446 27.0605 255.492 26.9068C255.546 26.7232 255.797 26.5803 255.935 26.4938C256.992 25.8274 258.209 25.2308 259.421 24.9148C261.468 24.3811 263.608 23.9818 265.728 24.2234C266.159 24.2726 266.573 24.4109 267.008 24.4288C267.466 24.4477 267.896 24.4913 268.347 24.5748C269.035 24.7021 269.664 25.0334 270.355 25.1316C270.558 25.1603 270.873 25.1933 270.987 25.3985C271.187 25.7577 269.08 25.84 269.014 25.8481C267.661 26.0122 266.315 26.2173 264.968 26.4185C264.096 26.5486 263.204 26.6227 262.342 26.8064C260.983 27.0956 259.648 27.4841 258.296 27.7967C257.414 28.0008 256.53 28.2208 255.665 28.4903C255.585 28.5154 255.293 28.6527 255.204 28.5976C255.122 28.546 255.269 28.4099 255.302 28.3945C255.839 28.1518 256.483 28.0645 257.048 27.9153C258.331 27.5769 259.626 27.5113 260.95 27.5092C263.325 27.5053 265.628 27.8654 267.957 28.2918C268.46 28.3839 268.932 28.4798 269.397 28.7003C269.529 28.7627 269.657 28.8329 269.785 28.9033C269.814 28.9193 269.904 28.9432 269.872 28.9513C269.775 28.9755 269.628 28.9515 269.532 28.9558C268.438 29.0049 267.343 29.02 266.25 29.0836C265.157 29.1473 264.07 29.287 262.976 29.3437C262.176 29.3852 261.39 29.3909 260.598 29.5354C259.307 29.7713 258.004 30.1434 256.829 30.7356C256.244 31.0303 255.614 31.305 254.985 31.4954C254.845 31.5381 254.608 31.68 254.816 31.4384C254.957 31.2749 255.159 31.2482 255.362 31.2011C256.353 30.971 257.353 30.8003 258.367 30.7036C259.24 30.6203 260.148 30.5399 261.023 30.6489C261.667 30.7292 262.28 30.8406 262.93 30.8406C263.323 30.8406 263.713 30.8464 264.103 30.7949C264.531 30.7384 264.942 30.6459 265.376 30.6375C266.203 30.6214 267.022 30.6656 267.818 30.8908C268.006 30.9439 268.215 30.959 268.215 31.1737C268.215 31.4732 268.072 31.8979 267.946 32.1685C267.894 32.2801 267.765 32.1829 267.681 32.1548C266.958 31.9138 266.286 31.5315 265.568 31.2787C264.819 31.0149 263.953 30.9408 263.191 31.1372C262.141 31.4074 261.083 31.6413 260.033 31.9061C259.407 32.0638 258.811 32.0678 258.18 32.1457C257.96 32.1728 257.002 32.7926 257.002 32.3191" stroke="#FF7926" stroke-width="3" stroke-linecap="round"/>
<path d="M111.375 82.125C105.208 82.125 99.875 80.8333 95.375 78.25C90.9583 75.6667 87.5 72 85 67.25C82.5 62.5 81.25 56.9167 81.25 50.5C81.25 45.5833 81.9583 41.2083 83.375 37.375C84.7917 33.5417 86.7917 30.25 89.375 27.5C92.0417 24.6667 95.2083 22.5417 98.875 21.125C102.625 19.625 106.792 18.875 111.375 18.875C117.458 18.875 122.708 20.1667 127.125 22.75C131.625 25.3333 135.125 29 137.625 33.75C140.125 38.4167 141.375 44 141.375 50.5C141.375 55.3333 140.667 59.7083 139.25 63.625C137.833 67.5417 135.792 70.875 133.125 73.625C130.542 76.375 127.375 78.5 123.625 80C119.958 81.4167 115.875 82.125 111.375 82.125ZM111.375 72.375C114.792 72.375 117.792 71.5417 120.375 69.875C122.958 68.2083 124.958 65.75 126.375 62.5C127.875 59.25 128.625 55.25 128.625 50.5C128.625 43.3333 127.042 37.9167 123.875 34.25C120.708 30.5833 116.542 28.75 111.375 28.75C107.875 28.75 104.833 29.5833 102.25 31.25C99.6667 32.8333 97.625 35.25 96.125 38.5C94.7083 41.75 94 45.75 94 50.5C94 57.5833 95.5833 63 98.75 66.75C101.917 70.5 106.125 72.375 111.375 72.375Z" fill="#FF7926"/>
<path d="M153 27L172.5 77L193 27" stroke="#FF7926" stroke-width="12" stroke-linecap="round" stroke-linejoin="round"/>
<path d="M7.54255 14.2002C6.851 14.2177 6.17823 14.0598 5.52424 13.7266C5.24233 13.5867 4.96095 13.4823 4.6801 13.4134C4.39925 13.3445 4.10536 13.3139 3.79844 13.3216L1.18766 13.3875L1.08662 6.57854L3.51673 6.51721C3.76926 6.51084 4.00535 6.44406 4.225 6.31689C4.44464 6.18971 4.64403 6.0073 4.82317 5.76964L8.37792 0.959011C8.47317 0.829905 8.56883 0.728663 8.6649 0.655285C8.76098 0.581907 8.87894 0.543454 9.01881 0.539924C9.14702 0.536689 9.2679 0.564046 9.38147 0.621997C9.49504 0.679949 9.59543 0.766108 9.68263 0.880473C9.76983 0.994839 9.83779 1.12236 9.88652 1.26304C9.93525 1.40371 9.96283 1.56013 9.96927 1.73228C9.97536 2.14264 9.94618 2.53362 9.88174 2.90522C9.8173 3.27682 9.71983 3.64925 9.58934 4.02251C9.51487 4.24232 9.4521 4.46436 9.40102 4.68865C9.34993 4.91293 9.31652 5.14944 9.30078 5.39818L11.8882 5.33288C12.0398 5.32906 12.1841 5.36343 12.3212 5.43599C12.4583 5.50855 12.5783 5.60942 12.6813 5.73859C12.7843 5.86776 12.8681 6.02022 12.9329 6.19597C12.9977 6.37172 13.0297 6.56096 13.0288 6.76371C13.0312 6.92583 13.0141 7.08084 12.9774 7.22874L11.5721 13.1026C11.4989 13.4035 11.3665 13.6476 11.1749 13.8349C10.9834 14.0222 10.7672 14.1188 10.5263 14.1249L7.54255 14.2002Z" fill="#FF7926"/>
<path d="M219 6.26833C219 8.14712 218.017 10.075 216.078 12.003C215.197 12.8777 214.239 13.6512 213.217 14.3115C213.15 14.3519 213.076 14.373 213 14.373C212.924 14.373 212.85 14.3519 212.783 14.3115C212.544 14.1642 207 10.6829 207 6.26833C207 5.49514 207.22 4.74155 207.629 4.1143C208.038 3.48706 208.616 3.01796 209.279 2.77346C209.943 2.52895 210.659 2.52144 211.327 2.75198C211.995 2.98252 212.58 3.43943 213 4.05798C213.42 3.43943 214.005 2.98252 214.673 2.75198C215.341 2.52144 216.057 2.52895 216.721 2.77346C217.384 3.01796 217.962 3.48706 218.371 4.1143C218.78 4.74155 219 5.49514 219 6.26833Z" fill="#FF7926"/>
</svg>
