<svg width="79" height="79" viewBox="0 0 79 79" fill="none" xmlns="http://www.w3.org/2000/svg">
<path d="M39.5 1.40854e-06C29.0277 -0.00279448 18.983 4.15678 11.5755 11.5638C4.16797 18.9709 0.00418968 29.0187 0 39.4974C0.00138307 44.6863 1.02418 49.8242 3.00999 54.6176C4.9958 59.411 7.90573 63.7662 11.5736 67.4343C15.2416 71.1025 19.5956 74.0118 24.3872 75.9963C29.1788 77.9807 34.3142 79.0014 39.5 79C46.3783 79 54.826 77.2715 60.8511 74.0095L75.5451 78.8682C76.0091 79.0207 76.5064 79.0409 76.9813 78.9268C77.4562 78.8127 77.89 78.5687 78.2343 78.222C78.5785 77.8754 78.8196 77.4397 78.9307 76.9638C79.0417 76.4879 79.0183 75.9905 78.8631 75.5272L73.9861 60.9245C77.5253 54.743 79 46.6643 79 39.4974C78.9958 29.0187 74.832 18.9709 67.4245 11.5638C60.017 4.15678 49.9723 -0.00279448 39.5 1.40854e-06Z" fill="#FF7926"/>
</svg>
