<svg width="89" height="67" viewBox="0 0 89 67" fill="none" xmlns="http://www.w3.org/2000/svg">
<path d="M38.9375 66.75C38.9375 66.75 33.375 66.75 33.375 61.1875C33.375 55.625 38.9375 38.9375 61.1875 38.9375C83.4375 38.9375 89 55.625 89 61.1875C89 66.75 83.4375 66.75 83.4375 66.75H38.9375ZM61.1875 33.375C65.6133 33.375 69.8578 31.6169 72.9873 28.4873C76.1169 25.3578 77.875 21.1133 77.875 16.6875C77.875 12.2617 76.1169 8.01717 72.9873 4.88766C69.8578 1.75814 65.6133 0 61.1875 0C56.7617 0 52.5172 1.75814 49.3877 4.88766C46.2581 8.01717 44.5 12.2617 44.5 16.6875C44.5 21.1133 46.2581 25.3578 49.3877 28.4873C52.5172 31.6169 56.7617 33.375 61.1875 33.375ZM29.014 66.75C28.1894 65.0135 27.7781 63.1096 27.8125 61.1875C27.8125 53.6503 31.595 45.8906 38.5815 40.495C35.0943 39.4205 31.4612 38.8951 27.8125 38.9375C5.5625 38.9375 0 55.625 0 61.1875C0 66.75 5.5625 66.75 5.5625 66.75H29.014ZM25.0312 33.375C28.7194 33.375 32.2565 31.9099 34.8645 29.302C37.4724 26.694 38.9375 23.1569 38.9375 19.4688C38.9375 15.7806 37.4724 12.2435 34.8645 9.63555C32.2565 7.02762 28.7194 5.5625 25.0312 5.5625C21.3431 5.5625 17.806 7.02762 15.198 9.63555C12.5901 12.2435 11.125 15.7806 11.125 19.4688C11.125 23.1569 12.5901 26.694 15.198 29.302C17.806 31.9099 21.3431 33.375 25.0312 33.375Z" fill="#FF7926"/>
</svg>
